<mxfile host="Electron" modified="2025-05-06T07:36:00.929Z" agent="Mozilla/5.0 (Windows NT 10.0; Win64; x64) AppleWebKit/537.36 (KHTML, like Gecko) draw.io/22.1.15 Chrome/120.0.6099.109 Electron/28.1.0 Safari/537.36" etag="byRfbbtdXuJaGcSKCqni" version="22.1.15" type="device">
  <diagram name="第1頁" id="bxMNnbcZU57wuHEu9DSn">
    <mxGraphModel dx="780" dy="496" grid="1" gridSize="10" guides="1" tooltips="1" connect="1" arrows="1" fold="1" page="1" pageScale="1" pageWidth="827" pageHeight="1169" math="0" shadow="0">
      <root>
        <mxCell id="0" />
        <mxCell id="1" parent="0" />
        <mxCell id="WcSwyFxIWQB_QARMJ-GJ-1" value="使用者" style="shape=umlActor;verticalLabelPosition=bottom;verticalAlign=top;html=1;outlineConnect=0;" parent="1" vertex="1">
          <mxGeometry x="130" y="270" width="30" height="60" as="geometry" />
        </mxCell>
        <mxCell id="WcSwyFxIWQB_QARMJ-GJ-36" value="" style="group;fillColor=none;" parent="1" vertex="1" connectable="0">
          <mxGeometry x="265" y="50" width="200" height="560" as="geometry" />
        </mxCell>
        <mxCell id="WcSwyFxIWQB_QARMJ-GJ-3" value="" style="rounded=0;whiteSpace=wrap;html=1;fillColor=none;" parent="WcSwyFxIWQB_QARMJ-GJ-36" vertex="1">
          <mxGeometry width="200" height="560" as="geometry" />
        </mxCell>
        <mxCell id="WcSwyFxIWQB_QARMJ-GJ-27" value="" style="group;fillColor=none;" parent="WcSwyFxIWQB_QARMJ-GJ-36" vertex="1" connectable="0">
          <mxGeometry x="40" y="287" width="120" height="60" as="geometry" />
        </mxCell>
        <mxCell id="WcSwyFxIWQB_QARMJ-GJ-21" value="" style="ellipse;whiteSpace=wrap;html=1;fillColor=none;" parent="WcSwyFxIWQB_QARMJ-GJ-27" vertex="1">
          <mxGeometry width="120" height="60" as="geometry" />
        </mxCell>
        <mxCell id="WcSwyFxIWQB_QARMJ-GJ-10" value="取得AI分析報告" style="text;html=1;strokeColor=none;fillColor=none;align=center;verticalAlign=middle;whiteSpace=wrap;rounded=0;" parent="WcSwyFxIWQB_QARMJ-GJ-27" vertex="1">
          <mxGeometry x="12.5" y="15" width="95" height="30" as="geometry" />
        </mxCell>
        <mxCell id="WcSwyFxIWQB_QARMJ-GJ-28" value="" style="group;fillColor=none;" parent="WcSwyFxIWQB_QARMJ-GJ-36" vertex="1" connectable="0">
          <mxGeometry x="40" y="218" width="120" height="60" as="geometry" />
        </mxCell>
        <mxCell id="WcSwyFxIWQB_QARMJ-GJ-20" value="" style="ellipse;whiteSpace=wrap;html=1;fillColor=none;" parent="WcSwyFxIWQB_QARMJ-GJ-28" vertex="1">
          <mxGeometry width="120" height="60" as="geometry" />
        </mxCell>
        <mxCell id="WcSwyFxIWQB_QARMJ-GJ-13" value="投資組合建議" style="text;html=1;strokeColor=none;fillColor=none;align=center;verticalAlign=middle;whiteSpace=wrap;rounded=0;" parent="WcSwyFxIWQB_QARMJ-GJ-28" vertex="1">
          <mxGeometry x="3.75" y="15" width="112.5" height="30" as="geometry" />
        </mxCell>
        <mxCell id="WcSwyFxIWQB_QARMJ-GJ-29" value="" style="group" parent="WcSwyFxIWQB_QARMJ-GJ-36" vertex="1" connectable="0">
          <mxGeometry x="40" y="149" width="120" height="60" as="geometry" />
        </mxCell>
        <mxCell id="WcSwyFxIWQB_QARMJ-GJ-19" value="" style="ellipse;whiteSpace=wrap;html=1;fillColor=none;" parent="WcSwyFxIWQB_QARMJ-GJ-29" vertex="1">
          <mxGeometry width="120" height="60" as="geometry" />
        </mxCell>
        <mxCell id="WcSwyFxIWQB_QARMJ-GJ-16" value="設定投資參數" style="text;html=1;strokeColor=none;fillColor=none;align=center;verticalAlign=middle;whiteSpace=wrap;rounded=0;" parent="WcSwyFxIWQB_QARMJ-GJ-29" vertex="1">
          <mxGeometry x="3.75" y="15" width="112.5" height="30" as="geometry" />
        </mxCell>
        <mxCell id="WcSwyFxIWQB_QARMJ-GJ-31" value="" style="group" parent="WcSwyFxIWQB_QARMJ-GJ-36" vertex="1" connectable="0">
          <mxGeometry x="40" y="79" width="120" height="60" as="geometry" />
        </mxCell>
        <mxCell id="WcSwyFxIWQB_QARMJ-GJ-75" value="" style="group" parent="WcSwyFxIWQB_QARMJ-GJ-31" vertex="1" connectable="0">
          <mxGeometry width="120" height="60" as="geometry" />
        </mxCell>
        <mxCell id="WcSwyFxIWQB_QARMJ-GJ-18" value="" style="ellipse;whiteSpace=wrap;html=1;fillColor=none;" parent="WcSwyFxIWQB_QARMJ-GJ-75" vertex="1">
          <mxGeometry width="120" height="60" as="geometry" />
        </mxCell>
        <mxCell id="WcSwyFxIWQB_QARMJ-GJ-8" value="查詢股票分析" style="text;html=1;strokeColor=none;fillColor=none;align=center;verticalAlign=middle;whiteSpace=wrap;rounded=0;" parent="WcSwyFxIWQB_QARMJ-GJ-75" vertex="1">
          <mxGeometry x="20" y="15" width="80" height="30" as="geometry" />
        </mxCell>
        <mxCell id="WcSwyFxIWQB_QARMJ-GJ-33" value="" style="group;fillColor=none;" parent="WcSwyFxIWQB_QARMJ-GJ-36" vertex="1" connectable="0">
          <mxGeometry x="40" y="356" width="120" height="60" as="geometry" />
        </mxCell>
        <mxCell id="WcSwyFxIWQB_QARMJ-GJ-22" value="" style="ellipse;whiteSpace=wrap;html=1;fillColor=none;" parent="WcSwyFxIWQB_QARMJ-GJ-33" vertex="1">
          <mxGeometry width="120" height="60" as="geometry" />
        </mxCell>
        <mxCell id="WcSwyFxIWQB_QARMJ-GJ-11" value="檢視技術圖表與指標" style="text;html=1;strokeColor=none;fillColor=none;align=center;verticalAlign=middle;whiteSpace=wrap;rounded=0;" parent="WcSwyFxIWQB_QARMJ-GJ-33" vertex="1">
          <mxGeometry x="3.75" y="15" width="112.5" height="30" as="geometry" />
        </mxCell>
        <mxCell id="WcSwyFxIWQB_QARMJ-GJ-35" value="" style="group;fillColor=none;" parent="WcSwyFxIWQB_QARMJ-GJ-36" vertex="1" connectable="0">
          <mxGeometry x="40" y="495" width="120" height="60" as="geometry" />
        </mxCell>
        <mxCell id="WcSwyFxIWQB_QARMJ-GJ-24" value="" style="ellipse;whiteSpace=wrap;html=1;fillColor=none;" parent="WcSwyFxIWQB_QARMJ-GJ-35" vertex="1">
          <mxGeometry width="120" height="60" as="geometry" />
        </mxCell>
        <mxCell id="WcSwyFxIWQB_QARMJ-GJ-12" value="管理追蹤清單" style="text;html=1;strokeColor=none;fillColor=none;align=center;verticalAlign=middle;whiteSpace=wrap;rounded=0;" parent="WcSwyFxIWQB_QARMJ-GJ-35" vertex="1">
          <mxGeometry x="3.75" y="15" width="112.5" height="30" as="geometry" />
        </mxCell>
        <mxCell id="WcSwyFxIWQB_QARMJ-GJ-59" value="" style="group;fillColor=none;" parent="WcSwyFxIWQB_QARMJ-GJ-36" vertex="1" connectable="0">
          <mxGeometry x="40" y="426" width="120" height="60" as="geometry" />
        </mxCell>
        <mxCell id="WcSwyFxIWQB_QARMJ-GJ-60" value="" style="ellipse;whiteSpace=wrap;html=1;fillColor=none;" parent="WcSwyFxIWQB_QARMJ-GJ-59" vertex="1">
          <mxGeometry width="120" height="60" as="geometry" />
        </mxCell>
        <mxCell id="WcSwyFxIWQB_QARMJ-GJ-61" value="閱讀新聞&lt;br style=&quot;border-color: var(--border-color);&quot;&gt;情緒分析結果" style="text;html=1;strokeColor=none;fillColor=none;align=center;verticalAlign=middle;whiteSpace=wrap;rounded=0;" parent="WcSwyFxIWQB_QARMJ-GJ-59" vertex="1">
          <mxGeometry x="3.75" y="15" width="112.5" height="30" as="geometry" />
        </mxCell>
        <mxCell id="WcSwyFxIWQB_QARMJ-GJ-74" value="" style="group;fillColor=none;" parent="WcSwyFxIWQB_QARMJ-GJ-36" vertex="1" connectable="0">
          <mxGeometry x="40" y="10" width="120" height="60" as="geometry" />
        </mxCell>
        <mxCell id="WcSwyFxIWQB_QARMJ-GJ-17" value="" style="ellipse;whiteSpace=wrap;html=1;fillColor=none;" parent="WcSwyFxIWQB_QARMJ-GJ-74" vertex="1">
          <mxGeometry width="120" height="60" as="geometry" />
        </mxCell>
        <mxCell id="WcSwyFxIWQB_QARMJ-GJ-15" value="登入註冊" style="text;html=1;strokeColor=none;fillColor=none;align=center;verticalAlign=middle;whiteSpace=wrap;rounded=0;" parent="WcSwyFxIWQB_QARMJ-GJ-74" vertex="1">
          <mxGeometry x="3.75" y="15" width="112.5" height="30" as="geometry" />
        </mxCell>
        <mxCell id="WcSwyFxIWQB_QARMJ-GJ-51" value="" style="endArrow=classic;html=1;rounded=0;entryX=0;entryY=0.5;entryDx=0;entryDy=0;" parent="1" target="WcSwyFxIWQB_QARMJ-GJ-15" edge="1">
          <mxGeometry width="50" height="50" relative="1" as="geometry">
            <mxPoint x="160" y="290" as="sourcePoint" />
            <mxPoint x="210" y="240" as="targetPoint" />
          </mxGeometry>
        </mxCell>
        <mxCell id="WcSwyFxIWQB_QARMJ-GJ-52" value="" style="endArrow=classic;html=1;rounded=0;entryX=0;entryY=0.5;entryDx=0;entryDy=0;" parent="1" target="WcSwyFxIWQB_QARMJ-GJ-18" edge="1">
          <mxGeometry width="50" height="50" relative="1" as="geometry">
            <mxPoint x="160" y="290" as="sourcePoint" />
            <mxPoint x="319" y="100" as="targetPoint" />
          </mxGeometry>
        </mxCell>
        <mxCell id="WcSwyFxIWQB_QARMJ-GJ-53" value="" style="endArrow=classic;html=1;rounded=0;entryX=0;entryY=0.5;entryDx=0;entryDy=0;exitX=1;exitY=0.3333333333333333;exitDx=0;exitDy=0;exitPerimeter=0;" parent="1" source="WcSwyFxIWQB_QARMJ-GJ-1" target="WcSwyFxIWQB_QARMJ-GJ-16" edge="1">
          <mxGeometry width="50" height="50" relative="1" as="geometry">
            <mxPoint x="180" y="310" as="sourcePoint" />
            <mxPoint x="329" y="110" as="targetPoint" />
          </mxGeometry>
        </mxCell>
        <mxCell id="WcSwyFxIWQB_QARMJ-GJ-54" value="" style="endArrow=classic;html=1;rounded=0;entryX=0;entryY=0.5;entryDx=0;entryDy=0;exitX=1;exitY=0.3333333333333333;exitDx=0;exitDy=0;exitPerimeter=0;" parent="1" source="WcSwyFxIWQB_QARMJ-GJ-1" target="WcSwyFxIWQB_QARMJ-GJ-13" edge="1">
          <mxGeometry width="50" height="50" relative="1" as="geometry">
            <mxPoint x="190" y="320" as="sourcePoint" />
            <mxPoint x="339" y="120" as="targetPoint" />
          </mxGeometry>
        </mxCell>
        <mxCell id="WcSwyFxIWQB_QARMJ-GJ-55" value="" style="endArrow=classic;html=1;rounded=0;entryX=0;entryY=0.5;entryDx=0;entryDy=0;" parent="1" target="WcSwyFxIWQB_QARMJ-GJ-21" edge="1">
          <mxGeometry width="50" height="50" relative="1" as="geometry">
            <mxPoint x="160" y="290" as="sourcePoint" />
            <mxPoint x="349" y="130" as="targetPoint" />
          </mxGeometry>
        </mxCell>
        <mxCell id="WcSwyFxIWQB_QARMJ-GJ-56" value="" style="endArrow=classic;html=1;rounded=0;entryX=0;entryY=0.5;entryDx=0;entryDy=0;exitX=1;exitY=0.3333333333333333;exitDx=0;exitDy=0;exitPerimeter=0;" parent="1" source="WcSwyFxIWQB_QARMJ-GJ-1" target="WcSwyFxIWQB_QARMJ-GJ-11" edge="1">
          <mxGeometry width="50" height="50" relative="1" as="geometry">
            <mxPoint x="210" y="340" as="sourcePoint" />
            <mxPoint x="359" y="140" as="targetPoint" />
          </mxGeometry>
        </mxCell>
        <mxCell id="WcSwyFxIWQB_QARMJ-GJ-62" value="" style="endArrow=classic;html=1;rounded=0;exitX=1;exitY=0.3333333333333333;exitDx=0;exitDy=0;exitPerimeter=0;entryX=0;entryY=0.5;entryDx=0;entryDy=0;" parent="1" source="WcSwyFxIWQB_QARMJ-GJ-1" target="WcSwyFxIWQB_QARMJ-GJ-12" edge="1">
          <mxGeometry width="50" height="50" relative="1" as="geometry">
            <mxPoint x="140" y="367" as="sourcePoint" />
            <mxPoint x="289" y="585" as="targetPoint" />
          </mxGeometry>
        </mxCell>
        <mxCell id="WcSwyFxIWQB_QARMJ-GJ-63" value="" style="endArrow=classic;html=1;rounded=0;exitX=1;exitY=0.3333333333333333;exitDx=0;exitDy=0;exitPerimeter=0;entryX=0;entryY=0.5;entryDx=0;entryDy=0;" parent="1" target="WcSwyFxIWQB_QARMJ-GJ-61" edge="1">
          <mxGeometry width="50" height="50" relative="1" as="geometry">
            <mxPoint x="160" y="290" as="sourcePoint" />
            <mxPoint x="309" y="508" as="targetPoint" />
          </mxGeometry>
        </mxCell>
      </root>
    </mxGraphModel>
  </diagram>
</mxfile>
